<svg width="21" height="20" viewBox="0 0 21 20" fill="none" xmlns="http://www.w3.org/2000/svg">
<path fill-rule="evenodd" clip-rule="evenodd" d="M9.97444 4.25431C10.5604 4.90384 10.3746 5.63969 9.85651 6.3379C9.73368 6.50344 9.59209 6.66654 9.42108 6.84627C9.339 6.93254 9.27499 6.99742 9.14112 7.13142C8.83708 7.43576 8.58149 7.69149 8.37435 7.89862C8.2739 7.99906 8.95972 9.36953 10.2907 10.7018C11.621 12.0334 12.9914 12.7197 13.0923 12.6187L13.8585 11.8521C14.2805 11.4297 14.504 11.2259 14.811 11.0244C15.4494 10.6056 16.1457 10.4918 16.7329 11.0169C18.6503 12.3885 19.7354 13.2301 20.2669 13.7824C21.3037 14.8597 21.1678 16.518 20.2728 17.464C19.9624 17.792 19.5689 18.1858 19.1041 18.6338C16.2926 21.4469 10.3589 19.735 5.81139 15.183C1.26285 10.63 -0.448184 4.69577 2.35747 1.88861C2.86116 1.377 3.02723 1.21101 3.51779 0.727647C4.43112 -0.172285 6.16589 -0.313196 7.22044 0.728537C7.77515 1.27649 8.65949 2.41433 9.97444 4.25431ZM15.2721 13.2661L14.5057 14.0329C13.203 15.3364 10.9845 14.2253 8.87697 12.1157C6.76802 10.0047 5.65821 7.787 6.96136 6.48396C7.16823 6.27711 7.42357 6.02162 7.72738 5.71751C7.84996 5.59481 7.90603 5.53798 7.97333 5.46724C8.06503 5.37087 8.14038 5.28623 8.20071 5.21133C7.03534 3.58799 6.24314 2.57364 5.81608 2.15176C5.59552 1.93389 5.10166 1.97401 4.92035 2.15265C4.4368 2.62912 4.27786 2.78798 3.7762 3.29748C1.97188 5.10279 3.35315 9.89332 7.22513 13.7691C11.0959 17.6437 15.8857 19.0256 17.7037 17.2068C18.1613 16.7655 18.5342 16.3924 18.8212 16.089C19.0286 15.8699 19.0656 15.4176 18.8271 15.1697C18.4297 14.7568 17.457 13.9984 15.7773 12.7922C15.6549 12.8907 15.5044 13.0337 15.2721 13.2661Z" fill="#11C856"/>
</svg>
